<?xml version="1.0" standalone="no"?>
<!DOCTYPE svg PUBLIC "-//W3C//DTD SVG 20010904//EN"
 "http://www.w3.org/TR/2001/REC-SVG-20010904/DTD/svg10.dtd">
<svg version="1.0" xmlns="http://www.w3.org/2000/svg"
 width="700.000000pt" height="700.000000pt" viewBox="0 0 700.000000 700.000000"
 preserveAspectRatio="xMidYMid meet">
<metadata>
Created by potrace 1.11, written by Peter Selinger 2001-2013
</metadata>
<g transform="translate(0.000000,700.000000) scale(0.100000,-0.100000)"
fill="#000000" stroke="none">
<path d="M2295 5776 c-269 -134 -499 -252 -510 -263 -11 -10 -42 -45 -70 -77
-27 -33 -64 -75 -81 -95 -59 -68 -339 -397 -354 -415 -13 -17 -15 -191 -16
-1427 l-1 -1408 21 -23 c27 -29 362 -421 436 -510 30 -36 63 -71 74 -78 10 -6
238 -121 507 -256 l489 -244 710 0 710 0 502 251 503 252 80 95 c44 52 89 104
100 116 11 12 79 91 150 176 72 84 144 168 160 187 l31 35 -1 1407 0 1408 -35
43 c-19 24 -42 51 -50 59 -9 9 -40 45 -70 81 -30 36 -57 67 -60 70 -3 3 -43
50 -90 105 -46 55 -89 105 -95 111 -5 7 -30 35 -55 64 -25 29 -52 61 -60 70
-8 9 -239 128 -512 264 l-497 246 -713 0 -713 -1 -490 -243z"/>
</g>
</svg>
